<svg width="24" height="24" viewBox="0 0 24 24" fill="none" xmlns="http://www.w3.org/2000/svg">
<path d="M1 1H5L7.68 14.39C7.77144 14.8504 8.02191 15.264 8.38755 15.5583C8.75318 15.8526 9.2107 16.009 9.68 16H19.4C19.8693 16.009 20.3268 15.8526 20.6925 15.5583C21.0581 15.264 21.3086 14.8504 21.4 14.39L23 6H6" stroke="black" stroke-width="2" stroke-linecap="round" stroke-linejoin="round"/>
<path d="M6.5 22C7.05228 22 7.5 21.5523 7.5 21C7.5 20.4477 7.05228 20 6.5 20C5.94772 20 5.5 20.4477 5.5 21C5.5 21.5523 5.94772 22 6.5 22Z" stroke="black" stroke-width="2" stroke-linecap="round" stroke-linejoin="round"/>
<path d="M17.5 22C18.0523 22 18.5 21.5523 18.5 21C18.5 20.4477 18.0523 20 17.5 20C16.9477 20 16.5 20.4477 16.5 21C16.5 21.5523 16.9477 22 17.5 22Z" stroke="black" stroke-width="2" stroke-linecap="round" stroke-linejoin="round"/>
</svg>
