<?xml version="1.0" encoding="UTF-8"?>
<svg width="46px" height="46px" viewBox="0 0 46 46" version="1.1" xmlns="http://www.w3.org/2000/svg" xmlns:xlink="http://www.w3.org/1999/xlink">
    <title>amazon-light</title>
    <g id="amazon-light" stroke="none" stroke-width="1" fill="none" fill-rule="evenodd">
        <rect id="Rectangle" fill="#444C58" x="0" y="0" width="46" height="46" rx="23"></rect>
        <g id="amazon" transform="translate(9.000000, 10.000000)" fill="#FFFFFF">
            <path d="M24.6690531,22.3115878 C21.6784394,24.7209048 17.3484541,26 13.6171484,26 C8.38775126,26 3.68185078,23.894506 0.120403013,20.3823112 C-0.158052637,20.1088704 0.0897728911,19.7321298 0.423919671,19.9448059 C4.26660764,22.3875435 9.02263014,23.8519708 13.9318033,23.8519708 C17.2426409,23.8519708 20.8820563,23.1015278 24.2346623,21.5489918 C24.7358825,21.3180863 25.1647042,21.9166177 24.6690531,22.3115878 Z" id="Path"></path>
            <path d="M25.9055421,19.9890599 C25.3215493,19.3940933 22.0672705,19.7050986 20.5988248,19.8470793 C20.1544824,19.8842647 20.0867731,19.5800204 20.4845653,19.3569079 C23.087142,17.8999158 27.344365,18.3224773 27.8394894,18.8058877 C28.3430774,19.2960591 27.7083026,22.7069755 25.2707673,24.3397532 C24.8983661,24.5932901 24.5428922,24.4546899 24.7037018,24.1267822 C25.2623037,23.0315028 26.4895349,20.5840265 25.9055421,19.9890599 Z" id="Path"></path>
            <path d="M18.8206556,19.5844126 L18.8267264,19.5903124 C19.5461121,18.9737825 20.8422204,17.8734683 21.576783,17.2805376 C21.8681797,17.053395 21.8165782,16.6758073 21.5889245,16.3601676 C20.9332819,15.4781463 20.2351439,14.7613196 20.2351439,13.1359225 L20.2351439,7.71399895 C20.2351439,5.41602374 20.3990546,3.30979228 18.6597803,1.72864374 C17.2877874,0.451335312 15.0082151,0 13.2659055,0 C9.86020626,0 6.05990727,1.23600977 5.26463703,5.32457671 C5.17661094,5.7582126 5.50746764,5.99125502 5.79886437,6.053203 L9.26830665,6.421941 C9.59309259,6.40424158 9.82681705,6.09450166 9.89056008,5.77886193 C10.1880276,4.37175772 11.4021806,3.6903299 12.7681028,3.6903299 C13.5057007,3.6903299 14.3434663,3.94992145 14.777526,4.59300052 C15.2783642,5.30982719 15.2146211,6.28624542 15.2146211,7.11811835 L15.2146211,7.56945366 C13.1414548,7.79659626 10.4278228,7.94114156 8.48517795,8.77301449 C6.24203022,9.71698377 4.66666667,11.6344214 4.66666667,14.4604294 C4.66666667,18.0740618 7.00694663,19.8823529 10.0241169,19.8823529 C12.5677675,19.8823529 13.9579727,19.3012219 15.9218653,17.3483854 C16.5714371,18.2628556 16.7808785,18.7082912 17.9737839,19.6699599 C18.2469683,19.8056554 18.5838958,19.7938558 18.8206556,19.5844126 L18.8206556,19.5844126 Z M15.2115857,11.1034386 C15.2115857,12.4574446 15.2449749,13.5872578 14.5438016,14.7908186 C13.9731496,15.7731367 13.0746764,16.3719672 12.0669294,16.3719672 C10.6949365,16.3719672 9.89359546,15.3542503 9.89359546,13.8527492 C9.89359546,10.8880957 12.6315105,10.3512131 15.2176565,10.3512131 L15.2176565,11.1034386 L15.2115857,11.1034386 L15.2115857,11.1034386 Z" id="Shape" fill-rule="nonzero"></path>
        </g>
    </g>
</svg>