<?xml version="1.0" encoding="UTF-8"?>
<svg width="46px" height="46px" viewBox="0 0 46 46" version="1.1" xmlns="http://www.w3.org/2000/svg" xmlns:xlink="http://www.w3.org/1999/xlink">
    <title>google-light</title>
    <g id="google-light" stroke="none" stroke-width="1" fill="none" fill-rule="evenodd">
        <rect id="Rectangle-Copy-2" stroke="#4285F4" stroke-width="2" fill="#FFFFFF" x="1" y="1" width="44" height="44" rx="22"></rect>
        <g id="logo_googleg_48dp" transform="translate(10.000000, 10.000000)">
            <path d="M25.081875,13.0877131 C25.081875,12.1802983 25.0004404,11.3077841 24.8492045,10.4701704 L12.796875,10.4701704 L12.796875,15.4202344 L19.6839205,15.4202344 C19.3872656,17.0198438 18.4856676,18.3751491 17.1303623,19.2825639 L17.1303623,22.4934163 L21.2660795,22.4934163 C23.6858522,20.2655966 25.081875,16.9849431 25.081875,13.0877131 L25.081875,13.0877131 Z" id="Shape" fill="#4285F4"></path>
            <path d="M12.796875,25.59375 C16.2520312,25.59375 19.1487784,24.447848 21.2660795,22.4934163 L17.1303623,19.2825639 C15.9844603,20.0503764 14.5186364,20.5040837 12.796875,20.5040837 C9.46387074,20.5040837 6.64274147,18.2529971 5.63644176,15.2282813 L1.36112216,15.2282813 L1.36112216,18.5438353 C3.46678978,22.7260866 7.79446022,25.59375 12.796875,25.59375 L12.796875,25.59375 Z" id="Shape" fill="#34A853"></path>
            <path d="M5.63644176,15.2282813 C5.38050426,14.4604688 5.23508522,13.6403054 5.23508522,12.796875 C5.23508522,11.9534446 5.38050426,11.1332813 5.63644176,10.3654688 L5.63644176,7.04991478 L1.36112216,7.04991478 C0.494424716,8.7774929 0,10.7319247 0,12.796875 C0,14.8618252 0.494424716,16.8162571 1.36112216,18.5438353 L5.63644176,15.2282813 L5.63644176,15.2282813 Z" id="Shape" fill="#FBBC05"></path>
            <path d="M12.796875,5.08966619 C14.6756889,5.08966619 16.3625498,5.7353267 17.6887712,7.00338069 L21.3591478,3.33300426 C19.1429616,1.26805398 16.2462145,0 12.796875,0 C7.79446022,0 3.46678978,2.86766335 1.36112216,7.04991478 L5.63644176,10.3654687 C6.64274147,7.34075284 9.46387074,5.08966619 12.796875,5.08966619 L12.796875,5.08966619 Z" id="Shape" fill="#EA4335"></path>
            <polygon id="Shape" points="0 0 25.59375 0 25.59375 25.59375 0 25.59375"></polygon>
        </g>
    </g>
</svg>