<?xml version="1.0" encoding="UTF-8"?>
<svg xmlns="http://www.w3.org/2000/svg"
  xmlns:xlink="http://www.w3.org/1999/xlink" width="46px" height="46px" viewBox="0 0 46 46" version="1.1">
  <g>
    <title>wechat-light</title>
    <path style=" stroke:none;fill-rule:nonzero;fill:rgb(0%,78.431373%,5.882353%);fill-opacity:1;" d="M 23 46 C 35.703125 46 46 35.703125 46 23 C 46 10.296875 35.703125 0 23 0 C 10.296875 0 0 10.296875 0 23 C 0 35.703125 10.296875 46 23 46 Z M 23 46 "/>
    <path style=" stroke:none;fill-rule:nonzero;fill:rgb(100%,100%,100%);fill-opacity:1;" d="M 36.019531 33.46875 C 38.167969 31.941406 39.53125 29.667969 39.53125 27.128906 C 39.53125 22.53125 35.0625 18.800781 29.550781 18.800781 C 24.042969 18.800781 19.574219 22.53125 19.574219 27.128906 C 19.574219 31.726562 24.042969 35.453125 29.550781 35.453125 C 30.746094 35.453125 31.890625 35.277344 32.953125 34.957031 C 33.136719 34.902344 33.339844 34.921875 33.511719 35.023438 L 35.675781 36.273438 C 36.15625 36.550781 36.433594 36.339844 36.292969 35.804688 L 35.820312 34.011719 C 35.769531 33.808594 35.847656 33.589844 36.019531 33.46875 Z M 26.226562 25.8125 C 25.480469 25.8125 24.871094 25.207031 24.871094 24.460938 C 24.871094 23.710938 25.476562 23.105469 26.226562 23.105469 C 26.972656 23.105469 27.582031 23.710938 27.582031 24.460938 C 27.582031 25.207031 26.972656 25.8125 26.226562 25.8125 Z M 32.839844 25.8125 C 32.089844 25.8125 31.484375 25.207031 31.484375 24.460938 C 31.484375 23.710938 32.089844 23.105469 32.839844 23.105469 C 33.585938 23.105469 34.195312 23.710938 34.195312 24.460938 C 34.191406 25.207031 33.585938 25.8125 32.839844 25.8125 Z M 32.839844 25.8125 "/>
    <path style=" stroke:none;fill-rule:nonzero;fill:rgb(100%,100%,100%);fill-opacity:1;" d="M 29.671875 18.007812 C 29.882812 18.007812 30.09375 18.011719 30.304688 18.023438 C 29.402344 13.25 24.445312 9.601562 18.457031 9.601562 C 11.835938 9.601562 6.46875 14.070312 6.46875 19.582031 C 6.46875 22.609375 8.089844 25.324219 10.652344 27.152344 C 10.894531 27.328125 11.003906 27.628906 10.925781 27.914062 L 10.363281 30.019531 C 10.191406 30.652344 10.519531 30.902344 11.085938 30.570312 L 13.652344 29.070312 C 13.882812 28.9375 14.160156 28.902344 14.417969 28.976562 C 15.679688 29.355469 17.042969 29.558594 18.457031 29.558594 C 18.675781 29.558594 18.890625 29.554688 19.105469 29.542969 C 18.839844 28.765625 18.699219 27.941406 18.699219 27.089844 C 18.699219 22.074219 23.613281 18.007812 29.671875 18.007812 Z M 22.441406 14.78125 C 23.320312 14.78125 24.035156 15.492188 24.035156 16.375 C 24.035156 17.253906 23.324219 17.96875 22.441406 17.96875 C 21.5625 17.96875 20.847656 17.253906 20.847656 16.375 C 20.847656 15.492188 21.5625 14.78125 22.441406 14.78125 Z M 14.433594 17.96875 C 13.554688 17.96875 12.84375 17.253906 12.84375 16.375 C 12.84375 15.492188 13.554688 14.78125 14.433594 14.78125 C 15.316406 14.78125 16.027344 15.492188 16.027344 16.375 C 16.027344 17.253906 15.316406 17.96875 14.433594 17.96875 Z M 14.433594 17.96875 "/>
  </g>
</svg>
