<?xml version="1.0" encoding="UTF-8"?>
<svg width="46px" height="46px" viewBox="0 0 46 46" version="1.1" xmlns="http://www.w3.org/2000/svg" xmlns:xlink="http://www.w3.org/1999/xlink">
    <title>spotify-light</title>
    <g id="spotify-light" stroke="none" stroke-width="1" fill="none" fill-rule="evenodd">
        <path d="M23,0 C10.2977204,0 0,10.2974458 0,22.9997254 C0,35.7033782 10.2977204,46 23,46 C35.7028289,46 46,35.7033782 46,22.9997254 C46,10.2974458 35.7028289,0 23,0 L23,0 Z" id="Path" fill="#1ED760"></path>
        <path d="M32.7866994,31.5484748 C33.4059384,31.9290222 33.6009446,32.7430339 33.2225068,33.3658859 C32.8438173,33.9907633 32.0353595,34.1864806 31.4166237,33.8056801 C26.4684991,30.7625674 20.2403791,30.0754047 12.9056304,31.761156 C12.1988274,31.9242115 11.4942889,31.4785939 11.3329999,30.767378 C11.1712077,30.0564153 11.6125507,29.3474782 12.3208635,29.1851822 C20.3475696,27.3389073 27.2326717,28.1334233 32.7866994,31.5484748 Z M35.2603843,25.3197023 C36.0326088,25.7982349 36.2756745,26.8160661 35.8008659,27.5923523 C35.324296,28.3704108 34.3132833,28.6144878 33.5410588,28.1367148 C27.8783309,24.634312 19.2434572,23.6195191 12.5440512,25.6658156 C11.6752043,25.9298947 10.7577946,25.4371834 10.4938443,24.5644311 C10.2321586,23.6904128 10.7220644,22.7687945 11.5894016,22.5029431 C19.2424507,20.1659824 28.7564878,21.2977499 35.2603843,25.3197023 Z M38.0350077,18.1695647 C38.9715406,18.7291187 39.2787697,19.9462119 38.7236941,20.8870728 C38.1681152,21.8294528 36.9575671,22.1401192 36.0232988,21.5805652 C29.2310448,17.5216468 18.0273734,17.148442 11.543355,19.1286554 C10.5018962,19.4466644 9.4008032,18.8552082 9.08527061,17.8075004 C8.76973803,16.759033 9.35702116,15.6518251 10.3989832,15.3333097 C17.8421805,13.0599002 30.2156373,13.4989348 38.0350077,18.1695647 Z" id="Spotify_Icon_RGB_Green" fill="#FFFFFF"></path>
    </g>
</svg>