<?xml version="1.0" encoding="UTF-8"?>
<svg width="46px" height="46px" viewBox="0 0 46 46" version="1.1" xmlns="http://www.w3.org/2000/svg" xmlns:xlink="http://www.w3.org/1999/xlink">
    <title>apple-light</title>
    <g id="apple-light" stroke="none" stroke-width="1" fill="none" fill-rule="evenodd">
        <g id="apple">
            <rect id="Rectangle-Copy-3" fill="#000000" x="0" y="0" width="46" height="46" rx="23"></rect>
            <g transform="translate(13.000000, 10.000000)" fill="#FFFFFF" fill-rule="nonzero" id="path4">
                <path d="M19.5808309,18.7032871 C19.2217516,19.5417801 18.7967186,20.3136082 18.3042665,21.0232168 C17.6330071,21.9905935 17.0833957,22.6602034 16.6598282,23.0320445 C16.0032258,23.6423962 15.2997228,23.954979 14.5463882,23.9727567 C14.0055706,23.9727567 13.3533646,23.8172052 12.5941678,23.5016607 C11.8324797,23.187594 11.1324941,23.0320445 10.4924529,23.0320445 C9.82119385,23.0320445 9.10127567,23.187594 8.3312333,23.5016607 C7.56001753,23.8172052 6.93873692,23.9816455 6.46372566,23.9979414 C5.74131608,24.0290513 5.02125209,23.7075796 4.30250611,23.0320445 C3.84376405,22.6276117 3.26996962,21.9342989 2.58258823,20.9521062 C1.84508297,19.9032506 1.23875139,18.6869912 0.763740331,17.3003667 C0.255019823,15.8026341 0,14.3523078 0,12.9482027 C0,11.3398072 0.343837077,9.95258991 1.03253707,8.79010647 C1.57379461,7.85635754 2.29385911,7.11978705 3.19507524,6.5790624 C4.09629217,6.03833855 5.07005748,5.76279141 6.11871676,5.74516193 C6.69251079,5.74516193 7.44496637,5.92456392 8.38003869,6.27714593 C9.31247321,6.63091298 9.91118363,6.81031498 10.1736777,6.81031498 C10.3699257,6.81031498 11.0350291,6.60054317 12.1625392,6.18233421 C13.2287862,5.79449404 14.1286834,5.63390576 14.8658957,5.69716304 C16.8635511,5.8601212 18.3643573,6.65609727 19.3624522,8.09012777 C17.5758481,9.184317 16.6920724,10.7168629 16.7096598,12.6828773 C16.7257818,14.214238 17.2753932,15.4885695 18.3555633,16.5003913 C18.8450837,16.9700059 19.3917646,17.332958 20,17.5907283 C19.868095,17.977383 19.7288601,18.3477423 19.5808309,18.7032871 Z M14.9992687,0.480136649 C14.9992687,1.68041067 14.5654412,2.80110311 13.7007195,3.83840442 C12.6571894,5.07155276 11.3949886,5.7841234 10.0262354,5.6716826 C10.0087946,5.52768674 9.9986816,5.37613608 9.9986816,5.21688184 C9.9986816,4.06462005 10.4949445,2.83147231 11.3762288,1.82320652 C11.8162105,1.3127039 12.3757885,0.888227871 13.0543759,0.549615299 C13.7314973,0.216055029 14.3719783,0.0315890163 14.9743521,0 C14.9919409,0.160457886 14.9992687,0.32092587 14.9992687,0.480121083 L14.9992687,0.480136649 Z"></path>
            </g>
        </g>
    </g>
</svg>